<svg xmlns="http://www.w3.org/2000/svg" width="37.840" height="42.666" viewBox="0 0 37.840 42.666" fill="none">
  <path d="M 37.291 23.746 C 37.451 23.965 37.587 24.2 37.697 24.447 C 37.812 24.644 37.859 24.873 37.833 25.099 C 37.806 25.325 37.707 25.536 37.55 25.701 C 37.254 25.867 36.904 25.996 36.609 26.162 L 35.889 26.513 C 35.77 26.565 35.663 26.643 35.578 26.742 C 35.494 26.841 35.432 26.957 35.398 27.083 C 35.365 27.209 35.36 27.341 35.384 27.469 C 35.408 27.597 35.461 27.718 35.538 27.822 C 35.649 27.988 35.778 28.117 35.889 28.283 C 36.006 28.437 36.069 28.625 36.069 28.818 C 36.069 29.011 36.006 29.199 35.889 29.353 C 35.723 29.777 35.372 29.722 35.077 29.777 C 34.782 29.833 35.077 29.943 35.077 30.073 C 35.23 30.124 35.366 30.217 35.47 30.341 C 35.574 30.464 35.642 30.614 35.668 30.773 C 35.685 30.93 35.662 31.089 35.601 31.234 C 35.539 31.379 35.442 31.507 35.317 31.603 C 35.064 31.783 34.823 31.981 34.597 32.194 C 34.402 32.379 34.264 32.617 34.202 32.879 C 34.14 33.141 34.155 33.416 34.247 33.669 C 34.469 34.266 34.517 34.914 34.387 35.537 C 34.256 36.161 33.952 36.734 33.509 37.192 C 33.248 37.472 32.925 37.688 32.567 37.823 C 32.208 37.957 31.823 38.007 31.442 37.967 C 30.63 37.912 29.855 37.782 29.025 37.672 C 28.09 37.482 27.138 37.383 26.184 37.377 C 25.528 37.362 24.885 37.549 24.339 37.912 C 23.982 38.155 23.7 38.494 23.527 38.889 C 23.365 39.276 23.241 39.677 23.158 40.088 C 23.107 40.51 22.935 40.908 22.663 41.235 C 22.392 41.562 22.032 41.804 21.626 41.932 C 19.094 42.52 16.492 42.756 13.895 42.633 C 11.251 42.763 8.603 42.502 6.035 41.859 C 5.873 41.817 5.721 41.74 5.591 41.634 C 5.461 41.528 5.356 41.395 5.282 41.244 C 5.209 41.093 5.169 40.928 5.165 40.761 C 5.161 40.593 5.193 40.426 5.26 40.272 L 5.26 40.033 C 6.182 37.38 6.221 34.501 5.371 31.825 C 4.745 29.811 4.005 27.835 3.157 25.904 C 2.345 23.894 1.459 21.902 0.795 19.836 C 0.246 18.094 -0.022 16.276 0.001 14.45 C 0.096 12.029 0.898 9.689 2.308 7.718 C 4.491 4.739 7.518 2.483 10.998 1.244 C 13.316 0.356 15.787 -0.064 18.268 0.008 C 20.583 0.008 22.872 0.502 24.981 1.456 C 27.091 2.41 28.973 3.803 30.501 5.541 C 31.905 7.161 32.825 9.142 33.158 11.259 C 33.5 13.251 33.574 15.279 33.38 17.29 C 33.333 18.302 33.676 19.292 34.339 20.057 C 35.335 21.256 36.332 22.492 37.291 23.746 Z" fill="currentColor" fill-rule="nonzero"></path>
</svg>