<svg xmlns="http://www.w3.org/2000/svg" width="183.651" height="47.650" viewBox="0 0 183.651 47.650" fill="none">
  <path d="M 42.671 1.203 L 15.714 0 L 0 19.628 L 11.111 45.938 L 38.216 47.65 L 53.62 25.481 L 42.671 1.203 Z M 15.968 22.533 L 35.512 13.996 L 32.672 35.47 L 15.968 22.533 Z M 17.633 2.977 L 33.248 9.702 L 14.357 17.138 L 17.633 2.977 Z M 12.328 26.587 L 29.289 38.725 L 12.741 43.045 L 12.328 26.587 Z M 39.341 13.681 L 50.908 25.397 L 36.27 36.27 L 39.341 13.681 Z M 18.953 45.109 L 33.259 41.335 L 35.787 46.193 L 18.953 45.109 Z M 36.117 40.101 L 48.648 30.77 L 38.611 44.973 L 36.117 40.101 Z M 40.272 9.6 L 42.727 4.596 L 49.334 18.807 L 40.272 9.6 Z M 23.757 1.557 L 39.655 2.202 L 36.879 7.297 L 23.757 1.557 Z M 2.276 18.599 L 13.412 4.511 L 9.727 20.18 L 2.276 18.599 Z M 1.787 21.338 L 9.277 22.922 L 9.574 39.769 L 1.787 21.338 Z M 67.684 22.441 L 68.571 22.441 L 74.982 14.007 L 76.804 15.439 L 70.617 23.307 L 77.881 32.108 L 76.047 33.643 L 68.501 24.417 L 67.684 24.417 L 67.684 33.183 L 65.284 33.183 L 65.284 14.468 L 67.684 14.468 L 67.684 22.441 Z M 87.035 14.469 L 89.422 14.469 L 89.422 31.029 L 99.191 31.029 L 99.191 33.182 L 87.035 33.182 L 87.035 14.469 Z M 119.658 14.469 L 108.03 14.469 L 108.03 33.182 L 119.66 33.182 L 119.66 31.029 L 110.435 31.029 L 110.435 24.382 L 118.052 24.382 L 118.052 22.234 L 110.432 22.234 L 110.432 16.633 L 119.658 16.633 L 119.658 14.469 Z M 129.201 14.469 L 135.535 14.469 C 138.646 14.469 141.107 15.948 141.107 19.564 C 141.103 20.724 140.736 21.855 140.057 22.796 C 139.378 23.738 138.421 24.444 137.321 24.814 L 141.899 32.388 L 139.833 33.642 L 135.102 25.172 L 131.634 25.172 L 131.634 33.181 L 129.269 33.181 L 129.201 14.469 Z M 134.744 23.021 C 137.109 23.021 138.612 21.684 138.612 19.568 C 138.656 18.83 138.405 18.104 137.914 17.551 C 137.424 16.997 136.733 16.662 135.995 16.617 C 135.82 16.606 135.645 16.612 135.471 16.635 L 131.604 16.635 L 131.604 23.021 L 134.744 23.021 Z M 156.137 33.5 C 162.641 33.5 162.747 25.351 162.747 23.849 C 162.747 16.303 159.212 14.15 156.137 14.15 C 153.062 14.15 149.514 16.349 149.514 23.849 C 149.514 31.348 153.121 33.5 156.137 33.5 Z M 156.134 31.24 C 152.516 31.24 152.018 26.568 152.018 23.849 L 151.959 23.849 C 151.959 21.088 152.525 16.413 156.134 16.413 C 159.743 16.413 160.239 21.188 160.239 23.849 C 160.239 26.509 159.753 31.24 156.134 31.24 Z M 173.628 27.256 C 174.102 29.551 175.202 31.249 177.709 31.249 C 179.673 31.249 181.256 30.175 181.256 28.09 C 181.256 25.981 179.636 25.326 177.967 24.652 C 177.81 24.588 177.653 24.525 177.497 24.46 C 177.221 24.339 176.946 24.224 176.675 24.11 C 174.279 23.102 172.199 22.226 172.199 19.067 C 172.199 15.908 174.74 14.146 177.675 14.146 C 180.785 14.146 182.607 15.937 183.363 18.876 L 181.069 19.551 C 180.644 17.729 179.674 16.428 177.64 16.428 C 176.105 16.428 174.6 17.221 174.6 18.907 C 174.6 20.592 175.674 21.166 177.108 21.816 L 181.069 23.567 C 181.872 23.976 182.542 24.607 182.999 25.385 C 183.456 26.162 183.681 27.054 183.648 27.955 C 183.648 31.504 181.17 33.514 177.727 33.514 C 174.285 33.514 172.073 31.289 171.506 27.955 L 173.628 27.256 Z" fill="currentColor" fill-rule="evenodd"></path>
</svg>