<svg xmlns="http://www.w3.org/2000/svg" width="48" height="42.641" viewBox="0 0 48 42.641" fill="none">
  <path d="M 14.094 0 L 38.229 1.079 L 48 22.794 L 34.214 42.641 L 9.948 41.086 L 0 17.558 L 14.094 0 Z M 31.788 12.517 L 14.296 20.161 L 29.251 31.726 L 31.788 12.517 Z M 29.763 8.687 L 15.784 2.667 L 12.848 15.324 L 29.763 8.687 Z M 26.22 34.635 L 11.028 23.785 L 11.395 38.488 L 26.22 34.635 Z M 45.573 22.746 L 35.221 12.239 L 32.488 32.444 L 45.573 22.746 Z M 29.782 36.999 L 16.969 40.348 L 32.036 41.313 L 29.782 36.999 Z M 43.55 27.514 L 32.335 35.87 L 34.563 40.226 L 43.55 27.514 Z M 38.245 4.113 L 36.067 8.586 L 44.175 16.83 L 38.245 4.113 Z M 35.531 1.973 L 21.293 1.395 L 33.038 6.533 L 35.531 1.973 Z M 12.014 4.041 L 2.042 16.637 L 8.709 18.049 L 12.014 4.041 Z M 8.307 20.52 L 1.607 19.101 L 8.598 35.574 L 8.307 20.52 Z" fill="currentColor" fill-rule="evenodd"></path>
</svg>