<svg xmlns="http://www.w3.org/2000/svg" width="67.404" height="76" viewBox="0 0 67.404 76" fill="none">
  <path d="M 67.15 43.547 C 66.954 43.107 66.711 42.688 66.427 42.299 C 64.718 40.065 62.943 37.863 61.168 35.728 C 59.987 34.365 59.375 32.6 59.459 30.799 C 59.806 27.217 59.673 23.604 59.065 20.056 C 58.471 16.285 56.831 12.756 54.332 9.871 C 51.609 6.774 48.257 4.294 44.499 2.594 C 40.742 0.894 36.665 0.015 32.541 0.014 C 28.121 -0.114 23.72 0.634 19.591 2.215 C 13.393 4.424 8 8.441 4.111 13.748 C 1.6 17.258 0.172 21.427 0.002 25.74 C -0.039 28.992 0.438 32.231 1.416 35.333 C 2.599 39.013 4.177 42.562 5.623 46.143 C 7.135 49.581 8.451 53.103 9.567 56.689 C 11.082 61.456 11.013 66.586 9.37 71.31 C 9.37 71.31 9.37 71.54 9.37 71.737 C 9.251 72.011 9.193 72.308 9.2 72.607 C 9.207 72.905 9.278 73.199 9.409 73.467 C 9.54 73.736 9.728 73.973 9.96 74.162 C 10.191 74.351 10.461 74.488 10.75 74.563 C 15.324 75.708 20.042 76.173 24.751 75.943 C 29.377 76.161 34.011 75.741 38.523 74.694 C 39.245 74.466 39.886 74.035 40.37 73.452 C 40.854 72.87 41.16 72.16 41.251 71.409 C 41.4 70.677 41.62 69.962 41.908 69.273 C 42.217 68.569 42.718 67.965 43.354 67.532 C 44.327 66.886 45.474 66.554 46.641 66.579 C 48.341 66.59 50.036 66.766 51.702 67.104 C 53.181 67.302 54.562 67.532 56.008 67.63 C 56.687 67.701 57.372 67.613 58.011 67.374 C 58.65 67.134 59.224 66.75 59.689 66.25 C 60.478 65.435 61.02 64.413 61.253 63.302 C 61.486 62.192 61.399 61.038 61.004 59.975 C 60.84 59.524 60.813 59.034 60.924 58.568 C 61.034 58.101 61.279 57.676 61.628 57.346 C 62.031 56.967 62.459 56.616 62.91 56.295 C 63.132 56.123 63.306 55.896 63.415 55.637 C 63.524 55.378 63.566 55.096 63.535 54.817 C 63.49 54.532 63.368 54.266 63.183 54.046 C 62.997 53.826 62.755 53.661 62.483 53.568 C 62.483 53.338 61.957 53.141 62.483 53.042 C 63.009 52.944 63.633 53.042 63.929 52.287 C 64.137 52.013 64.249 51.678 64.249 51.334 C 64.249 50.99 64.137 50.655 63.929 50.381 C 63.732 50.085 63.502 49.855 63.304 49.56 C 63.167 49.373 63.072 49.158 63.029 48.93 C 62.986 48.702 62.995 48.467 63.055 48.243 C 63.115 48.019 63.224 47.811 63.376 47.635 C 63.527 47.459 63.716 47.32 63.929 47.227 L 65.211 46.603 C 65.737 46.307 66.361 46.077 66.887 45.781 C 67.167 45.488 67.344 45.111 67.391 44.708 C 67.439 44.305 67.354 43.898 67.15 43.547 Z M 30.503 51.498 L 19.986 35.958 L 30.503 42.529 L 41.021 35.958 L 30.503 51.498 Z M 30.503 40.59 L 19.986 34.019 L 30.503 15.62 L 41.021 34.019 L 30.503 40.59 Z" fill="currentColor" fill-rule="nonzero"></path>
</svg>